 <svg version="1.0" xmlns="http://www.w3.org/2000/svg" width="700.000000pt" height="700.000000pt" viewBox="0 0 700.000000 700.000000" preserveAspectRatio="xMidYMid meet">
<metadata>
Created by potrace 1.12, written by Peter Selinger 2001-2015
</metadata>
<g transform="translate(0.000000,700.000000) scale(0.100000,-0.100000)" fill="#000000" stroke="none">
<path d="M4643 6515 c-102 -22 -156 -60 -198 -137 -28 -51 -29 -60 -37 -248
-5 -117 -14 -216 -23 -247 -30 -104 -124 -190 -230 -211 -43 -9 -500 -12
-1739 -12 -925 0 -1846 -3 -2048 -7 l-368 -6 0 -2367 0 -2367 443 -6 c575 -9
5539 -9 6115 0 l442 6 0 2802 0 2802 -452 6 c-789 12 -1834 7 -1905 -8z m1686
-360 c141 -24 246 -132 244 -251 -1 -82 -56 -169 -133 -209 -84 -43 -115 -45
-760 -46 -641 -2 -659 0 -741 42 -107 54 -159 198 -110 305 41 90 130 150 244
162 84 9 1201 7 1256 -3z m-669 -880 c778 -3 739 1 834 -86 33 -30 63 -69 77
-101 l24 -53 3 -1700 c2 -1209 0 -1718 -8 -1764 -25 -144 -113 -241 -246 -272
-70 -16 -5618 -16 -5688 0 -134 31 -221 128 -246 272 -7 45 -10 569 -8 1759 3
1619 4 1697 21 1742 28 71 95 140 169 174 l63 29 1907 0 c1049 0 1910 4 1915
9 4 4 118 5 253 1 135 -4 553 -8 930 -10z"></path>
</g>

<style>
@media (prefers-color-scheme: dark) {
    g{
        fill:#fff;
    }
}
</style>
</svg>